<svg xmlns="http://www.w3.org/2000/svg" viewBox="0 0 1300 320"><g transform="translate(10,10) scale(7.5)"><path fill-rule="evenodd" clip-rule="evenodd" d="M2.15461 2.15461C0 4.30923 0 7.77705 0 14.7127V25.2873C0 32.2229 0 35.6908 2.15461 37.8454C4.30923 40 7.77705 40 14.7127 40H25.2873C32.2229 40 35.6908 40 37.8454 37.8454C40 35.6908 40 32.2229 40 25.2873V14.7127C40 7.77705 40 4.30923 37.8454 2.15461C35.6908 0 32.2229 0 25.2873 0H14.7127C7.77705 0 4.30923 0 2.15461 2.15461ZM38.1609 19.2066L36.2559 16.3053L10.7528 1.85998C9.20765 1.88709 7.94765 1.94932 6.8858 2.09209C5.0865 2.334 4.13365 2.77636 3.45501 3.45501C2.77636 4.13365 2.334 5.0865 2.09209 6.8858C2.04265 7.2535 2.00287 7.64495 1.97087 8.0638L8.43685 12.8202L6.63815 20.1203L18.5266 27.2304L15.4626 38.1609H25.2873C27.4612 38.1609 29.2288 38.1594 30.6992 38.0995L31.7033 29.4505L35.6322 28.6207L37.2737 23.4328L38.1609 23.4676V19.2066ZM17.9663 25.1024L8.5116 19.6271L10.8129 15.3235L15.7193 18.3423L17.233 19.6271L14.3316 21.2435L20.2101 21.6674L17.9663 25.1024Z" fill="#322FE0"/><path fill-rule="evenodd" clip-rule="evenodd" d="M36.2559 16.3052L38.1609 19.2066V23.4676L37.2737 23.4328L35.6322 28.6207L31.7033 29.4505L30.6992 38.0995C29.2288 38.1594 27.4612 38.1609 25.2873 38.1609H15.4625L18.5266 27.2304L6.63815 20.1203L8.43685 12.8202L1.97087 8.0638C2.00287 7.64495 2.04265 7.2535 2.09209 6.8858C2.334 5.0865 2.77636 4.13365 3.45501 3.45501C4.13365 2.77636 5.0865 2.334 6.8858 2.09209C7.94765 1.94932 9.20765 1.88709 10.7528 1.85998L36.2559 16.3052ZM8.5116 19.6271L17.9663 25.1023L20.2101 21.6674L14.3316 21.2435L17.233 19.6271L15.7193 18.3423L10.8129 15.3235L8.5116 19.6271Z" fill="#8a38f5"/></g><text x="370" y="212" font-family="Helvetica Neue, Arial, sans-serif" font-weight="800" font-size="148" letter-spacing="-4" fill="#16143A">DarkRP Reborn</text></svg>