<svg xmlns="http://www.w3.org/2000/svg" viewBox="0 0 1200 340">
<defs>
<linearGradient id="bg" x1="0" y1="0" x2="0" y2="1">
<stop offset="0" stop-color="#1a1e40"/><stop offset="1" stop-color="#0a0c20"/>
</linearGradient>
<clipPath id="round"><rect width="1200" height="340" rx="20"/></clipPath>
</defs>
<g clip-path="url(#round)">
<rect width="1200" height="340" fill="url(#bg)"/>
<g transform="translate(-60,-210) scale(0.68)"><path d="M1067.5 1353.08C1094.09 1313.46 1120.31 1273.68 1146.17 1233.74C1337.4 938.385 1508.68 634.057 1660.02 320.756L1686.93 265.046L1650.33 207.439C1609.82 143.676 1568.45 80.4899 1526.23 17.8802C1479.93 -50.7831 1432.6 -118.753 1384.25 -186.03L1332.37 -268.159L1237.3 -225.743C1128.71 -169.274 1021.3 -110.367 915.058 -49.0239L1028.27 -27.8661C867.471 -176.189 700.38 -318.635 527.003 -455.205C489.623 -484.649 451.951 -513.82 413.987 -542.718C440.263 -502.894 466.831 -463.343 493.691 -424.066C618.275 -241.885 749.146 -65.5813 886.303 104.846L943.998 158.063L999.52 126.004C1113.65 81.0083 1226.6 33.5756 1338.37 -16.2943L1191.43 -56.0077C1235.67 14.0421 1280.95 83.3985 1327.25 152.062C1369.47 214.671 1412.54 276.705 1456.47 338.162L1446.78 224.844C1312.77 545.936 1198.7 876 1104.59 1215.04C1091.86 1260.89 1079.49 1306.9 1067.5 1353.08Z" fill="#5a6cc4" opacity="0.16"/><path d="M-341 100C-295.52 132.521 -249.841 164.639 -203.962 196.353C-29.4812 316.965 147.884 431.743 328.134 540.686L279.419 418.06C185.45 617.676 98.1768 819.777 17.5994 1024.36L-100.042 1329.61L199.746 1190.62C260.688 1162.91 321.344 1134.6 381.714 1105.69C491.444 1053.15 600.229 998.631 708.069 942.142L527.24 798.353C458.807 1167.28 410.656 1540.72 382.786 1918.69C378.685 1974.31 375.023 2030.03 371.8 2085.85C392.592 2033.95 412.944 1981.95 432.857 1929.85C568.173 1575.84 683.207 1217.3 777.96 854.247L829.006 591.491L597.131 710.458C485.511 759.055 374.837 809.624 265.107 862.167C204.737 891.074 144.653 920.579 84.8544 950.681L267.001 1116.94C339.423 909.323 405.15 699.224 464.181 486.64L490.087 393.346L415.466 364.014C219.452 286.963 20.5533 215.746 -181.23 150.365C-234.287 133.173 -287.544 116.385 -341 100Z" fill="#5a6cc4" opacity="0.16"/><path d="M1823.35 360C1819.99 391.53 1816.99 423.018 1814.32 454.467C1797.82 649.495 1794.69 842.957 1804.93 1034.85L1851.08 940.722C1774.14 980.713 1698.61 1023.05 1624.49 1067.74C1579.61 1094.8 1535.24 1122.73 1491.39 1151.51L1377.78 1214.31L1473.76 1312.75C1570.26 1397.72 1670.92 1478.33 1775.75 1554.55L1792.08 1442.91C1711.05 1498.51 1631.59 1557.22 1553.7 1619.02C1528.97 1638.63 1504.41 1658.56 1480 1678.8C1510.74 1671.04 1541.33 1662.97 1571.76 1654.59C1667.62 1628.19 1761.9 1598.69 1854.62 1566.09L1942.08 1506.71L1870.95 1454.45C1789.58 1353.57 1704.04 1257.08 1614.34 1164.95L1596.71 1326.19C1642.63 1300.84 1688.04 1274.64 1732.93 1247.58C1807.04 1202.89 1879.74 1155.86 1951.02 1106.48L2007.21 1067.56L1997.17 1012.35C1962.8 823.274 1915.06 635.767 1853.95 449.827C1844.1 419.844 1833.9 389.901 1823.35 360Z" fill="#5a6cc4" opacity="0.16"/></g>
<g transform="translate(84,102) scale(3.4)">
<path fill-rule="evenodd" clip-rule="evenodd" d="M2.15461 2.15461C0 4.30923 0 7.77705 0 14.7127V25.2873C0 32.2229 0 35.6908 2.15461 37.8454C4.30923 40 7.77705 40 14.7127 40H25.2873C32.2229 40 35.6908 40 37.8454 37.8454C40 35.6908 40 32.2229 40 25.2873V14.7127C40 7.77705 40 4.30923 37.8454 2.15461C35.6908 0 32.2229 0 25.2873 0H14.7127C7.77705 0 4.30923 0 2.15461 2.15461ZM38.1609 19.2066L36.2559 16.3053L10.7528 1.85998C9.20765 1.88709 7.94765 1.94932 6.8858 2.09209C5.0865 2.334 4.13365 2.77636 3.45501 3.45501C2.77636 4.13365 2.334 5.0865 2.09209 6.8858C2.04265 7.2535 2.00287 7.64495 1.97087 8.0638L8.43685 12.8202L6.63815 20.1203L18.5266 27.2304L15.4626 38.1609H25.2873C27.4612 38.1609 29.2288 38.1594 30.6992 38.0995L31.7033 29.4505L35.6322 28.6207L37.2737 23.4328L38.1609 23.4676V19.2066ZM17.9663 25.1024L8.5116 19.6271L10.8129 15.3235L15.7193 18.3423L17.233 19.6271L14.3316 21.2435L20.2101 21.6674L17.9663 25.1024Z" fill="#ffffff"/>
<path fill-rule="evenodd" clip-rule="evenodd" d="M36.2559 16.3052L38.1609 19.2066V23.4676L37.2737 23.4328L35.6322 28.6207L31.7033 29.4505L30.6992 38.0995C29.2288 38.1594 27.4612 38.1609 25.2873 38.1609H15.4625L18.5266 27.2304L6.63815 20.1203L8.43685 12.8202L1.97087 8.0638C2.00287 7.64495 2.04265 7.2535 2.09209 6.8858C2.334 5.0865 2.77636 4.13365 3.45501 3.45501C4.13365 2.77636 5.0865 2.334 6.8858 2.09209C7.94765 1.94932 9.20765 1.88709 10.7528 1.85998L36.2559 16.3052ZM8.5116 19.6271L17.9663 25.1023L20.2101 21.6674L14.3316 21.2435L17.233 19.6271L15.7193 18.3423L10.8129 15.3235L8.5116 19.6271Z" fill="#322FE0"/>
</g>
<text x="252" y="184" font-family="Helvetica Neue, Arial, sans-serif" font-weight="800" font-size="76" letter-spacing="-1" fill="#ffffff">DARKRP REBORN</text>
<text x="256" y="228" font-family="Helvetica Neue, Arial, sans-serif" font-weight="600" font-size="24" letter-spacing="6" fill="#b57bff">NEXT-GEN CITY ROLEPLAY ON S&amp;BOX</text>
<rect x="0.5" y="0.5" width="1199" height="339" rx="20" fill="none" stroke="#ffffff" stroke-opacity="0.10"/>
</g>
</svg>